<svg xmlns="http://www.w3.org/2000/svg" xmlns:xlink="http://www.w3.org/1999/xlink" width="274.418" height="172.429" viewBox="0 0 274.418 172.429"><defs><style>.a{fill:#6c63ff;}.b{fill:#444053;}.c{fill:#2e2e33;}.d{fill:#fff;}.e{fill:#fa5959;}.e,.f,.g{opacity:0.8;}.f{fill:#fed253;}.g{fill:#8ccf4d;}.h{fill:#f2f1f5;}.i{fill:#dcdcdc;opacity:0.2;}.j{fill:#233f8c;}.k{fill:url(#c);}.l{fill:#fbbebe;}.m{fill:#3f3d56;}.n,.p{opacity:0.1;}.o{fill:#33313f;}.q{filter:url(#a);}</style><filter id="a" x="0" y="0" width="261.464" height="166.914" filterUnits="userSpaceOnUse"><feOffset dy="5" input="SourceAlpha"/><feGaussianBlur stdDeviation="5" result="b"/><feFlood flood-color="#999" flood-opacity="0.161"/><feComposite operator="in" in2="b"/><feComposite in="SourceGraphic"/></filter><linearGradient id="c" y1="0.5" x2="1" y2="0.5" gradientUnits="objectBoundingBox"><stop offset="0" stop-color="gray" stop-opacity="0.251"/><stop offset="0.54" stop-color="gray" stop-opacity="0.122"/><stop offset="1" stop-color="gray" stop-opacity="0.102"/></linearGradient></defs><g transform="translate(-1.558 -18.095)"><path class="a" d="M990.761,689.452s-2.909-1.919-5.791-.554c0,0,.888,1.709,4.537,1.548Z" transform="translate(-755.858 -536.718)"/><path class="a" d="M1004.781,693.25s.885,3.37-1.335,5.664c0,0-1.335-1.389,0-4.793Z" transform="translate(-769.509 -540.415)"/><path class="a" d="M1004.708,672.781s-.215-2.866-6.688-1.915a3.088,3.088,0,0,0,2.241,2.724A3.738,3.738,0,0,0,1004.708,672.781Z" transform="translate(-765.819 -523.18)"/><path class="a" d="M1021.879,679.5s2.736.878.3,6.949a3.1,3.1,0,0,1-2.13-2.819A3.711,3.711,0,0,1,1021.879,679.5Z" transform="translate(-782.583 -529.919)"/><path class="a" d="M1023.271,648.552s.372-4.717-6.243-4.234c0,0-.473,4.26,5.077,5.368Z" transform="translate(-780.321 -503.037)"/><path class="a" d="M1037.659,626.758s-.906-5.346-7.519-3.754c0,0-.024,4.622,6.44,5.027Z" transform="translate(-790.338 -486.568)"/><path class="a" d="M1049.381,603.852s-1.52-5.207-8.071-3.649c0,0,1.56,4.684,7.635,4.61Z" transform="translate(-798.864 -469.167)"/><path class="a" d="M1063.04,580.653s-1.484-5.4-7.81-3.787c0,0,2.111,5.133,7.391,4.7Z" transform="translate(-809.49 -451.345)"/><path class="a" d="M1073.789,554.984s-1.141-6.608-7.039-5.145c0,0,1.714,6.011,6.605,6.109Z" transform="translate(-818.283 -430.783)"/><path class="a" d="M1080.577,529.8s-1.37-6.66-7.337-4.733c0,0,2.338,6.3,6.913,5.645Z" transform="translate(-823.237 -411.765)"/><path class="a" d="M1087.108,501.011s-2.175-6.662-6.788-6.482c0,0,2.222,7.036,6.4,7.81Z" transform="translate(-828.641 -388.722)"/><path class="a" d="M1092.34,474.271s-2.367-8.018-6.12-7.4c0,0,1.638,6.13,5.988,8.65Z" transform="translate(-833.145 -367.587)"/><path class="a" d="M1094.737,447.589s-2.22-6.681-5.917-6.949c0,0,1.51,6.575,5.843,8.686Z" transform="translate(-835.13 -347.59)"/><path class="a" d="M1098.917,421.58s-2.767-6.688-5.207-6.84c0,0,1.2,6.587,4.97,7.938Z" transform="translate(-838.862 -327.82)"/><path class="a" d="M1103.626,393.747s-1.7-7.263-4.146-7.867c0,0,.334,5.943,3.9,8.411Z" transform="translate(-843.267 -305.79)"/><path class="a" d="M1108.74,365.474s-1.789-5.791-3.77-6.674c0,0,.391,6.828,3.313,8.089Z" transform="translate(-847.457 -285.119)"/><path class="a" d="M1119.327,333.07l.36-10.21s-3.7,7.7-.627,12Z" transform="translate(-857.28 -257.685)"/><path class="a" d="M1131.563,297.7s2.667-7.455,3.313-7.872c0,0-5.23,4.838-4.719,11.06Z" transform="translate(-866.656 -232.473)"/><path class="a" d="M1040.742,662.122s4.691-.613,4.551,6.016c0,0-4.239.691-5.623-4.793Z" transform="translate(-797.612 -516.642)"/><path class="a" d="M1059.362,639.06s5.42-.017,4.97,6.769c0,0-4.551.814-6.052-5.486Z" transform="translate(-811.818 -499.05)"/><path class="a" d="M1074.225,616.992s4.92-2.308,8.068,3.649c0,0-4.544,1.922-8.5-2.686Z" transform="translate(-823.657 -481.869)"/><path class="a" d="M1087.347,592.392s5.039-2.454,8,3.363c0,0-5.249,1.808-8.414-2.443Z" transform="translate(-833.687 -463.035)"/><path class="a" d="M1095.5,566.28s4.849-4.632,8.719.052c0,0-4.954,3.813-8.941.98Z" transform="translate(-840.061 -441.935)"/><path class="a" d="M1102.515,538.938s4.878-4.733,8.717.218c0,0-5.474,3.889-8.892.776Z" transform="translate(-845.45 -421.066)"/><path class="a" d="M1106.93,505.686s3.758-5.917,8.184-4.6c0,0-3.9,6.265-8.142,5.985Z" transform="translate(-848.954 -393.587)"/><path class="a" d="M1111.3,477.754s3.787-7.45,7.37-6.153c0,0-2.731,5.727-7.467,7.41Z" transform="translate(-852.213 -371.108)"/><path class="a" d="M1111.5,451.562s3.893-5.865,7.54-5.148c0,0-3.183,5.948-7.919,6.845Z" transform="translate(-852.152 -351.951)"/><path class="a" d="M1114,421.717s3.018-6.582,5.469-6.627c0,0-1.448,6.534-5.266,7.744Z" transform="translate(-854.35 -328.087)"/><path class="a" d="M1116.5,396.979s3.354-6.665,5.874-6.679c0,0-1.716,5.7-5.763,7.263Z" transform="translate(-856.259 -309.164)"/><path class="a" d="M1118.63,368.959s2.509-5.514,4.587-6.139c0,0-1.254,6.721-4.31,7.6Z" transform="translate(-857.885 -288.188)"/><path class="a" d="M1122.749,337.6l5.607-8.541s-1.437,8.426-6.426,10.177Z" transform="translate(-860.404 -262.418)"/><path class="a" d="M1132.895,309.153s6.516-4.5,6.752-5.223c0,0-3.313,6.3-9.467,7.41Z" transform="translate(-866.701 -243.235)"/><path class="a" d="M1142.72,294.275s7.481-7.192,9.391-7.185a12.212,12.212,0,0,0-9.571,6.8Z" transform="translate(-876.136 -230.381)"/><path class="b" d="M1118.94,333.486l.272.036c1.406-11,3.455-17.514,5.77-18.311l-.09-.26C1122.438,315.8,1120.374,322.213,1118.94,333.486Z" transform="translate(-858.121 -251.647)"/><path class="b" d="M1110.2,416.95l.412.033c.088-1.027.154-2.078.2-3.126.393-9.107,1-17.471,1.8-23.741l-.237-.3c-.8,6.284-1.583,14.9-1.976,24.02C1110.354,414.881,1110.288,415.927,1110.2,416.95Z" transform="translate(-851.45 -308.798)"/><path class="b" d="M976.282,551.747a53.6,53.6,0,0,0,14.844-10.989,59.694,59.694,0,0,0,10.851-15.384,69.689,69.689,0,0,0,6.31-24.245l-.428.2c-1.6,18.981-10.238,31.951-17.109,39.015a53.046,53.046,0,0,1-14.69,10.887Z" transform="translate(-749.057 -393.764)"/><path class="c" d="M316.309,132.69H88.9a2.026,2.026,0,0,0-2.026,2.026v5.9H318.334v-5.9A2.026,2.026,0,0,0,316.309,132.69Z" transform="translate(-70.312 -112.523)"/><g class="q" transform="matrix(1, 0, 0, 1, 1.56, 18.1)"><path class="d" d="M86.87,166.19V299.019a4.085,4.085,0,0,0,4.085,4.085H314.249a4.085,4.085,0,0,0,4.085-4.085V166.19Z" transform="translate(-71.87 -156.19)"/></g><circle class="e" cx="0.947" cy="0.947" r="0.947" transform="translate(19.277 23.125)"/><circle class="f" cx="0.947" cy="0.947" r="0.947" transform="translate(21.88 23.125)"/><circle class="g" cx="0.947" cy="0.947" r="0.947" transform="translate(24.484 23.125)"/><rect class="h" width="183.183" height="79.995" rx="4" transform="translate(39.493 50.863)"/><path class="a" d="M336,349.38A18.224,18.224,0,1,0,354.227,367.6,18.224,18.224,0,0,0,336,349.38Zm3.268,18.662v8.629H332.83v-8.629a5.337,5.337,0,1,1,6.442,0Z" transform="translate(-246.573 -277.929)"/><path class="i" d="M336,349.38A18.224,18.224,0,1,0,354.227,367.6,18.224,18.224,0,0,0,336,349.38Zm3.268,18.662v8.629H332.83v-8.629a5.337,5.337,0,1,1,6.442,0Z" transform="translate(-246.573 -277.929)"/><path class="j" d="M319.21,327.38a23.43,23.43,0,1,0,23.43,23.43,23.43,23.43,0,0,0-23.43-23.43Zm4.2,23.994v11.093h-8.284V351.374a6.863,6.863,0,1,1,8.284,0Z" transform="translate(-229.779 -261.136)"/><rect class="d" width="75.735" height="8.047" transform="translate(122.565 86.601)"/><rect class="a" width="16.33" height="8.047" transform="translate(181.969 101.274)"/><path class="a" d="M555.212,424.537h-1.37l1.219-1.216a.121.121,0,0,0,0-.168.118.118,0,0,0-.168,0l-1.219,1.219V423a.118.118,0,0,0-.118-.118.121.121,0,0,0-.118.118v1.373l-1.216-1.226a.118.118,0,0,0-.168,0,.121.121,0,0,0,0,.168l1.219,1.216H551.9a.121.121,0,0,0-.118.118.118.118,0,0,0,.118.118h1.373l-1.219,1.219a.121.121,0,0,0,0,.168.123.123,0,0,0,.168,0l1.216-1.219v1.37a.118.118,0,0,0,.237,0v-1.37l1.219,1.219a.123.123,0,0,0,.168,0,.121.121,0,0,0,0-.168l-1.219-1.219h1.37a.115.115,0,1,0,0-.23Z" transform="translate(-425.192 -334.033)"/><path class="a" d="M576.212,424.537h-1.37l1.219-1.216a.121.121,0,0,0,0-.168.118.118,0,0,0-.168,0l-1.219,1.219V423a.118.118,0,0,0-.118-.118.121.121,0,0,0-.118.118v1.373l-1.216-1.226a.118.118,0,0,0-.168,0,.121.121,0,0,0,0,.168l1.219,1.216H572.9a.121.121,0,0,0-.118.118.118.118,0,0,0,.118.118h1.373l-1.219,1.219a.121.121,0,0,0,0,.168.123.123,0,0,0,.168,0l1.216-1.219v1.37a.118.118,0,0,0,.237,0v-1.37l1.219,1.219a.123.123,0,0,0,.168,0,.121.121,0,0,0,0-.168l-1.219-1.219h1.37a.115.115,0,1,0,0-.23Z" transform="translate(-441.222 -334.033)"/><path class="a" d="M597.212,424.537h-1.37l1.219-1.216a.121.121,0,0,0,0-.168.118.118,0,0,0-.168,0l-1.219,1.219V423a.118.118,0,0,0-.118-.118.121.121,0,0,0-.118.118v1.373l-1.216-1.226a.118.118,0,0,0-.168,0,.121.121,0,0,0,0,.168l1.219,1.216H593.9a.121.121,0,0,0-.118.118.118.118,0,0,0,.118.118h1.373l-1.219,1.219a.121.121,0,0,0,0,.168.123.123,0,0,0,.168,0l1.216-1.219v1.37a.118.118,0,1,0,.237,0v-1.37l1.219,1.219a.123.123,0,0,0,.168,0,.121.121,0,0,0,0-.168l-1.219-1.219h1.37a.115.115,0,1,0,0-.23Z" transform="translate(-457.251 -334.033)"/><path class="a" d="M618.212,424.537h-1.37l1.219-1.216a.121.121,0,0,0,0-.168.118.118,0,0,0-.168,0l-1.219,1.219V423a.118.118,0,0,0-.118-.118.121.121,0,0,0-.118.118v1.373l-1.217-1.226a.118.118,0,0,0-.168,0,.121.121,0,0,0,0,.168l1.219,1.216H614.9a.121.121,0,0,0-.118.118.118.118,0,0,0,.118.118h1.373l-1.219,1.219a.121.121,0,0,0,0,.168.123.123,0,0,0,.168,0l1.217-1.219v1.37a.118.118,0,1,0,.237,0v-1.37l1.219,1.219a.123.123,0,0,0,.168,0,.121.121,0,0,0,0-.168l-1.219-1.219h1.37a.115.115,0,1,0,0-.23Z" transform="translate(-473.281 -334.033)"/><path class="a" d="M639.212,424.537h-1.37l1.219-1.216a.121.121,0,0,0,0-.168.118.118,0,0,0-.168,0l-1.219,1.219V423a.118.118,0,0,0-.118-.118.121.121,0,0,0-.118.118v1.373l-1.216-1.226a.118.118,0,0,0-.168,0,.121.121,0,0,0,0,.168l1.219,1.216H635.9a.121.121,0,0,0-.118.118.118.118,0,0,0,.118.118h1.373l-1.219,1.219a.121.121,0,0,0,0,.168.123.123,0,0,0,.168,0l1.216-1.219v1.37a.118.118,0,1,0,.237,0v-1.37l1.219,1.219a.123.123,0,0,0,.168,0,.121.121,0,0,0,0-.168l-1.219-1.219h1.37a.115.115,0,1,0,0-.23Z" transform="translate(-489.311 -334.033)"/><path class="a" d="M660.212,424.537h-1.37l1.219-1.216a.121.121,0,0,0,0-.168.118.118,0,0,0-.168,0l-1.219,1.219V423a.118.118,0,0,0-.118-.118.121.121,0,0,0-.118.118v1.373l-1.216-1.226a.118.118,0,0,0-.168,0,.121.121,0,0,0,0,.168l1.219,1.216H656.9a.121.121,0,0,0-.118.118.118.118,0,0,0,.118.118h1.373l-1.219,1.219a.121.121,0,0,0,0,.168.123.123,0,0,0,.168,0l1.216-1.219v1.37a.118.118,0,1,0,.237,0v-1.37l1.219,1.219a.123.123,0,0,0,.168,0,.121.121,0,0,0,0-.168l-1.219-1.219h1.37a.115.115,0,1,0,0-.23Z" transform="translate(-505.341 -334.033)"/><path class="a" d="M681.212,424.537h-1.37l1.219-1.216a.121.121,0,0,0,0-.168.118.118,0,0,0-.168,0l-1.219,1.219V423a.118.118,0,0,0-.118-.118.121.121,0,0,0-.118.118v1.373l-1.216-1.226a.118.118,0,0,0-.168,0,.121.121,0,0,0,0,.168l1.219,1.216H677.9a.121.121,0,0,0-.118.118.118.118,0,0,0,.118.118h1.373l-1.219,1.219a.121.121,0,0,0,0,.168.123.123,0,0,0,.168,0l1.216-1.219v1.37a.118.118,0,0,0,.237,0v-1.37l1.219,1.219a.123.123,0,0,0,.168,0,.121.121,0,0,0,0-.168l-1.219-1.219h1.37a.115.115,0,1,0,0-.23Z" transform="translate(-521.371 -334.033)"/><path class="a" d="M702.212,424.537h-1.37l1.219-1.216a.121.121,0,0,0,0-.168.118.118,0,0,0-.168,0l-1.219,1.219V423a.118.118,0,0,0-.118-.118.121.121,0,0,0-.118.118v1.373l-1.216-1.226a.118.118,0,0,0-.168,0,.121.121,0,0,0,0,.168l1.219,1.216H698.9a.121.121,0,0,0-.118.118.118.118,0,0,0,.118.118h1.373l-1.219,1.219a.121.121,0,0,0,0,.168.123.123,0,0,0,.168,0l1.216-1.219v1.37a.118.118,0,0,0,.237,0v-1.37l1.219,1.219a.123.123,0,0,0,.168,0,.121.121,0,0,0,0-.168l-1.219-1.219h1.37a.115.115,0,1,0,0-.23Z" transform="translate(-537.401 -334.033)"/><path class="a" d="M723.212,424.537h-1.37l1.219-1.216a.121.121,0,0,0,0-.168.118.118,0,0,0-.168,0l-1.219,1.219V423a.118.118,0,0,0-.118-.118.121.121,0,0,0-.118.118v1.373l-1.216-1.226a.118.118,0,0,0-.168,0,.121.121,0,0,0,0,.168l1.219,1.216H719.9a.121.121,0,0,0-.118.118.118.118,0,0,0,.118.118h1.373l-1.219,1.219a.121.121,0,0,0,0,.168.123.123,0,0,0,.168,0l1.216-1.219v1.37a.118.118,0,0,0,.237,0v-1.37l1.219,1.219a.123.123,0,0,0,.168,0,.121.121,0,0,0,0-.168l-1.219-1.219h1.37a.115.115,0,1,0,0-.23Z" transform="translate(-553.431 -334.033)"/><path class="a" d="M744.212,424.537h-1.37l1.219-1.216a.121.121,0,0,0,0-.168.118.118,0,0,0-.168,0l-1.219,1.219V423a.118.118,0,0,0-.118-.118.121.121,0,0,0-.118.118v1.373l-1.217-1.226a.118.118,0,0,0-.168,0,.121.121,0,0,0,0,.168l1.219,1.216H740.9a.121.121,0,0,0-.118.118.118.118,0,0,0,.118.118h1.373l-1.219,1.219a.121.121,0,0,0,0,.168.123.123,0,0,0,.168,0l1.217-1.219v1.37a.118.118,0,0,0,.237,0v-1.37l1.219,1.219a.123.123,0,0,0,.168,0,.121.121,0,0,0,0-.168l-1.219-1.219h1.37a.115.115,0,1,0,0-.23Z" transform="translate(-569.461 -334.033)"/><path class="a" d="M765.212,424.537h-1.37l1.219-1.216a.121.121,0,0,0,0-.168.118.118,0,0,0-.168,0l-1.219,1.219V423a.118.118,0,0,0-.118-.118.121.121,0,0,0-.118.118v1.373l-1.216-1.226a.118.118,0,0,0-.168,0,.121.121,0,0,0,0,.168l1.219,1.216H761.9a.121.121,0,0,0-.118.118.118.118,0,0,0,.118.118h1.373l-1.219,1.219a.121.121,0,0,0,0,.168.123.123,0,0,0,.168,0l1.216-1.219v1.37a.118.118,0,1,0,.237,0v-1.37l1.219,1.219a.123.123,0,0,0,.168,0,.121.121,0,0,0,0-.168l-1.219-1.219h1.37a.115.115,0,1,0,0-.23Z" transform="translate(-585.491 -334.033)"/><path class="k" d="M821.377,487.276a4.234,4.234,0,0,0-.107-.85,2.759,2.759,0,0,0-1.484-2.009,12.458,12.458,0,0,1-2.352-.994c-.142-2.537.44-5.133-.194-7.592a19.322,19.322,0,0,1-.731-2.681c-.13-1.145.182-2.367-.275-3.422a3.378,3.378,0,0,0-2-1.728,10.659,10.659,0,0,0-2.667-.473c-1.136-.092-4.814-.528-6.1.488h0a1.341,1.341,0,0,0-.237.237h0a.944.944,0,0,0-.076.123l-.012.019a.961.961,0,0,0-.064.154h0a1.2,1.2,0,0,0-.04.178v.426c.017.213.047.426.047.637a1.37,1.37,0,0,1-.028.312,2.186,2.186,0,0,1-.393.767h0l-.043.062c-.026.038-.052.073-.076.111s-.043.066-.062.1-.038.054-.054.085a1.147,1.147,0,0,0-.062.121c0,.024-.026.045-.036.069a1.177,1.177,0,0,0-.071.2,1.321,1.321,0,0,0-.014.63,2.345,2.345,0,0,0,.324.746c.059.1.123.192.189.286l.166.225a5.122,5.122,0,0,0-.05.663,4.9,4.9,0,0,0,1.869,3.848,14.5,14.5,0,0,1-.03,3c-.021.208-.047.419-.076.627s-.05.346-.078.518a2.4,2.4,0,0,1-1.034-.078,4.884,4.884,0,0,0-.473-.182c-.689-.173-1.392.514-2.073.305a.278.278,0,0,1-.031.095.927.927,0,0,0-.473-.14,1.727,1.727,0,0,1-1.027-.589l-.9-.85a1,1,0,0,1-.156-.175,1.23,1.23,0,0,1-.109-.291,3.354,3.354,0,0,0-.873-1.252.591.591,0,0,0-.258-.187.4.4,0,0,0-.118,0,1.044,1.044,0,0,0-.078-.095,2.228,2.228,0,0,0-.2-.2c-.431-.4-.473-.738-.847-1.183a11.365,11.365,0,0,1-.885-1.337c-.031-.249-.073-.5-.125-.762a9.808,9.808,0,0,0-.518-1.728l-.473-1.048-.054.054c-.343-.511-.71-.79-1.039-.724-.551.114-.824,1.183-.736,2.582l.189,1.42a.438.438,0,0,0,.026.107,2.624,2.624,0,0,0-.052.511c0,.2.185.346.282.523a1.48,1.48,0,0,1,.237.807c-.012.1-.043.2-.047.3a1.147,1.147,0,0,0,.222.615l1.183,1.988.237.417.014.019a1.01,1.01,0,0,0,.317.364,4.337,4.337,0,0,0,.391,1.437c.04.09.085.175.133.26a8.373,8.373,0,0,0,1.117,1.451l.563.632c.556.62,1.112,1.243,1.716,1.815a2.3,2.3,0,0,0,.767.537.869.869,0,0,0,.861-.125v.88a.495.495,0,0,1,.374.779,19.516,19.516,0,0,1-1.751,3.706,7.89,7.89,0,0,1,1.467,1.119,6.6,6.6,0,0,1,.764,1.034c.021.175.038.348.047.521.175,2.821-.916,5.621-1.893,8.31a6.476,6.476,0,0,0-.566,2.353,4.616,4.616,0,0,0-.53.381,3.509,3.509,0,0,1,.1,1.5,2.659,2.659,0,0,1-.2.947,6.645,6.645,0,0,1-.341.608,9.032,9.032,0,0,0-.871,3.6c-.073.746.215,1.657-.123,2.324a9.508,9.508,0,0,0-1.183,3.64,3.649,3.649,0,0,1-.109.85c-.073.237-.2.438-.27.67a2.865,2.865,0,0,0-.047.947,9.06,9.06,0,0,1-.5,3.339,4.541,4.541,0,0,0-.391,2.618,3.69,3.69,0,0,0-1,2.2,3.464,3.464,0,0,1-.076.627,3.049,3.049,0,0,1-.284.6,5.282,5.282,0,0,0-.644,2.84,7.9,7.9,0,0,0-1.276,3.332c-.211,1.181-.3,2.383-.573,3.55a33.092,33.092,0,0,0-1.138,4.684,3.3,3.3,0,0,0-1.245,2.336,10.4,10.4,0,0,1-.547,2.667c-.194.431-.473.817-.658,1.257a5.772,5.772,0,0,0-.284,1.082,4.22,4.22,0,0,0-.073,1.775,2.678,2.678,0,0,1-.693.528c.038-.147.069-.294.095-.443-.611.554-1.718.36-2.206,1.025a1,1,0,0,0,.237,1.37,1.9,1.9,0,0,0,.49.211,7.829,7.829,0,0,0,3.616.559,1.079,1.079,0,0,0,.409-.13,1.317,1.317,0,0,0,.381-.44c.182-.289.365-.578.544-.866a11.244,11.244,0,0,0,1.328.31c.045.379.078.757.095,1.136.237.047.554.062.665-.159a.574.574,0,0,0,.04-.263c0-.168.024-.391.038-.618h.047a4.5,4.5,0,0,0,2.095-.424c-.253-2.1.582-4.146,1.306-6.13.764-2.087,1.42-4.213,2.08-6.338.473-1.5,1-2.944,1.46-4.442q.876-2.84,1.758-5.68c.256-.833.514-1.657.807-2.485a38.71,38.71,0,0,1,2.194-4.883c.237-.447.473-.89.667-1.354.237-.566.4-1.157.594-1.742a26.992,26.992,0,0,1,1.486-3.5c.017-.031.028-.059.045-.088.192.783.383,1.579.511,2.367a8.995,8.995,0,0,1,.04,2.925,9.649,9.649,0,0,0-.3,1.983,12.248,12.248,0,0,0,.774,2.658,10.117,10.117,0,0,1,.265,2.035c.066,1.065.644,2.26.237,3.247-1.266,3.126-.653,6.658-1.375,9.94-.372,1.685-1.51,3.268-1.42,4.991q.095,1.834.322,3.659a3.481,3.481,0,0,0,.3,1.11,4.091,4.091,0,0,0,.324.53c-.1.04-.192.147-.267.372a1.46,1.46,0,0,0,.525,1.657,2.3,2.3,0,0,0,.684.237,3.6,3.6,0,0,0,.989.137,2.311,2.311,0,0,0,.31-.038,11.3,11.3,0,0,0,1.12.4,2.427,2.427,0,0,0,.031.291.362.362,0,0,0,.123.267.369.369,0,0,0,.189.033h1.285v-.322a1.058,1.058,0,0,0,.816-.265,1.264,1.264,0,0,0,.237-.492q.525-1.782,1.044-3.567a11.4,11.4,0,0,0,.509-4.071c-.457-4.362.547-8.738.22-13.112a31.409,31.409,0,0,1,.4-7.867c.107-.587.237-1.183.284-1.768.1-1.1-.024-2.218.054-3.313.026-.383.078-.764.125-1.146a55,55,0,0,0,.509-7.136,22.453,22.453,0,0,0-.147-2.367,1.351,1.351,0,0,0,.646-.379,1.609,1.609,0,0,0,.154-1.011,7.325,7.325,0,0,1,.637-2.419,28.737,28.737,0,0,0,.895-3.328,11.617,11.617,0,0,0,.4-2.781q0-.142-.014-.284a.733.733,0,0,0,.218-.237,1.375,1.375,0,0,0,.114-.438c.085-.6.173-1.209.258-1.815q.095-.651.187-1.3l.753-5.252c.064-.457.13-.911.194-1.366l.2-1.358c.021-.161.045-.322.062-.473C821.99,489.662,821.439,488.374,821.377,487.276ZM815.1,506.939a4.326,4.326,0,0,1-.473-2.057H814.6a1.056,1.056,0,0,0-.031-.667c-.073-.173-.2-.319-.279-.492a1.8,1.8,0,0,1-.128-.663,18.063,18.063,0,0,1,.339-4.293c.031-.166.064-.334.095-.5a1.238,1.238,0,0,0,.27-.211,1.919,1.919,0,0,0,.305-.473c.267-.537.511-1.084.736-1.64.073-.18.18-.388.362-.433a10.392,10.392,0,0,1-.459,4.047,2.56,2.56,0,0,0-.237.639c-.052.353.095.71.043,1.06-.026.182-.1.35-.135.53a.518.518,0,0,0,.137.5.413.413,0,0,0,.1.052c-.014.095-.026.192-.036.284-.019.194-.028.376-.04.49a15.267,15.267,0,0,0-.064,1.742c0,.627.024,1.254.014,1.893a1.286,1.286,0,0,1-.09.537.932.932,0,0,1-.18.237A6.142,6.142,0,0,0,815.1,506.939Z" transform="translate(-603.555 -367.982)"/><ellipse class="l" cx="1.335" cy="3.78" rx="1.335" ry="3.78" transform="matrix(0.98, -0.201, 0.201, 0.98, 190.038, 104.358)"/><path class="m" d="M878.162,836.648a1.433,1.433,0,0,0,.525,1.64,2.341,2.341,0,0,0,.679.237,3.582,3.582,0,0,0,.987.135c.409-.019.8-.18,1.212-.237a.189.189,0,0,1,.14.019.2.2,0,0,1,.052.166,6.258,6.258,0,0,0,.052.7.358.358,0,0,0,.123.268.37.37,0,0,0,.189.033H883.4a12.509,12.509,0,0,0-.367-3.346.749.749,0,0,0-.095-.237.784.784,0,0,0-.409-.237,2.288,2.288,0,0,0-.992-.173,2.9,2.9,0,0,0-1.112.544,1.7,1.7,0,0,1-1.261.305C878.74,836.347,878.383,835.99,878.162,836.648Z" transform="translate(-674.273 -649.081)"/><path class="l" d="M793.7,834.041a3.55,3.55,0,0,1-1.295.88l-.218.1a.151.151,0,0,0-.073.059.128.128,0,0,0,.024.107,1.531,1.531,0,0,0,1.737.632.92.92,0,0,0,.381-.2,1.25,1.25,0,0,0,.294-.762,1.56,1.56,0,0,0-.036-.873C794.181,833.248,794.06,833.584,793.7,834.041Z" transform="translate(-608.64 -647.513)"/><path class="m" d="M793.939,837.4a.575.575,0,0,1-.04.263c-.111.218-.421.206-.663.159a15.931,15.931,0,0,0-.291-2.39c-.459-.021-.791.414-1.037.8l-.634,1.006a1.312,1.312,0,0,1-.379.44,1.121,1.121,0,0,1-.409.13,7.761,7.761,0,0,1-3.6-.559,1.914,1.914,0,0,1-.49-.208,1,1,0,0,1-.237-1.368c.49-.663,1.59-.473,2.2-1.022a5.507,5.507,0,0,1-.312,1.129c.817-.123,1.366-.871,2.024-1.37a1.245,1.245,0,0,1,.578-.275,1.27,1.27,0,0,1,.473.05,5.552,5.552,0,0,1,2.083,1.025,2.245,2.245,0,0,1,.746.776A5.746,5.746,0,0,1,793.939,837.4Z" transform="translate(-603.966 -647.953)"/><circle class="l" cx="4.89" cy="4.89" r="4.89" transform="translate(201.365 101.577)"/><path class="m" d="M912.737,614.34a11.593,11.593,0,0,1-.4,2.767,28.564,28.564,0,0,1-.895,3.313,7.291,7.291,0,0,0-.632,2.414,1.6,1.6,0,0,1-.156,1.008,1.472,1.472,0,0,1-.691.4.864.864,0,0,0-.582.518,3.657,3.657,0,0,1-.492-1.084q-.637-1.95-1.183-3.922a.509.509,0,0,1,.033-.473.588.588,0,0,1,.206-.116,2.129,2.129,0,0,0,.656-.421.96.96,0,0,0,.218-.282,1.277,1.277,0,0,0,.092-.535c0-.627,0-1.252-.017-1.879a15.691,15.691,0,0,1,.066-1.735c0-.114.021-.3.04-.49.036-.372.107-.8.308-.947.3-.2,1.2.069,1.541.116.587.081,1.183.175,1.756.286A4.686,4.686,0,0,1,912.737,614.34Z" transform="translate(-696.851 -479.004)"/><path class="m" d="M828.4,504.661c-.189.379-.644.561-.994.8l-1.2.824a.8.8,0,0,1-.594.2.781.781,0,0,1-.443-.414.082.082,0,0,0,0-.019l-.248-.417-1.183-1.983a1.128,1.128,0,0,1-.22-.611c0-.1.036-.2.045-.3a1.432,1.432,0,0,0-.237-.8c-.095-.178-.284-.324-.279-.523a1.892,1.892,0,0,1,.133-.764,1.548,1.548,0,0,1,.518-.554c.111-.08.225-.156.343-.237a.678.678,0,0,1,.206-.095c.2-.04.391.123.589.13.854.573,1.183,1.657,1.855,2.438.379.445.417.786.845,1.183.069.062.135.128.2.2a1.376,1.376,0,0,1,.213.308C828.026,504.228,828.5,504.467,828.4,504.661Z" transform="translate(-632.256 -392.72)"/><path class="l" d="M874.021,506.394a4.406,4.406,0,0,1,.525,2.383,1.49,1.49,0,0,1-.206.627,2.027,2.027,0,0,1-1.678.648.989.989,0,0,0-.729.237.663.663,0,0,0,.045.809,1.827,1.827,0,0,0,.724.473,6.412,6.412,0,0,0,3.117.691c.5-.047.98-.192,1.474-.265a15.482,15.482,0,0,1,1.624-.09c.644-.024,1.285-.088,1.927-.152l1.7-.168a.379.379,0,0,0,.253-.092c.125-.147-.036-.362-.192-.473-.9-.667-2.05-1.127-2.563-2.13a12.525,12.525,0,0,1-.485-1.548,13,13,0,0,1-.563-1.493,9.878,9.878,0,0,1-.078-1.377,1.848,1.848,0,0,0-.473-1.259,1.973,1.973,0,0,0-1.287-.414,4.168,4.168,0,0,0-3.138,1.018c-.215.215-.4.473-.622.667s-.525.251-.379.507.435.414.592.639A5.439,5.439,0,0,1,874.021,506.394Z" transform="translate(-669.485 -395.036)"/><path class="m" d="M867.134,527.468a26.88,26.88,0,0,1-1.448,5.332,20.081,20.081,0,0,0-.852,2.39c-.182.734-.147,1.519-.315,2.255-.208.916-.417,1.834-.585,2.757a18.079,18.079,0,0,0-.336,4.284,1.792,1.792,0,0,0,.128.66c.078.17.2.317.277.492a1.183,1.183,0,0,1-.066.947,2.743,2.743,0,0,1-.488.738c-2.206.658-4.565.443-6.863.582-2.118.128-4.26.563-6.348.2a5.031,5.031,0,0,1,.5-2.861c.982-2.682,2.068-5.474,1.893-8.283a8.59,8.59,0,0,0-.111-.978,12.956,12.956,0,0,1,.629-5.981,10.264,10.264,0,0,0,.27-3.735,6.817,6.817,0,0,1-.017-1.224,2.151,2.151,0,0,1,.445-1.143c0-.017.021-.033.033-.05a.325.325,0,0,1,.178,0h0a.152.152,0,0,0,.118,0l.026-.017a.059.059,0,0,1,.069,0c.054.033.085.147.2.168a4.717,4.717,0,0,0,.528.05,2.842,2.842,0,0,1,.63.09h.028a1.848,1.848,0,0,0,.918-.078,2.439,2.439,0,0,0,.563-.218c.052-.057.379-.109.445-.149.215-.13.168-.741.213-.992a2.728,2.728,0,0,1,.177-.734,1.25,1.25,0,0,1,1.013-.589,5.4,5.4,0,0,1,1.214.109c.883.125,1.787.1,2.653.308a1.976,1.976,0,0,0,1.311.057c.109.026.125.121.125.237a1.516,1.516,0,0,1-.066.324c-.151.653.362,1.254.835,1.728a2.68,2.68,0,0,0,.7.556c.237.109.473.154.71.272a1.293,1.293,0,0,1,.473.433,1.807,1.807,0,0,1,.27.689A4.118,4.118,0,0,1,867.134,527.468Z" transform="translate(-652.958 -409.224)"/><path class="n" d="M874.318,535.342a26.888,26.888,0,0,1-1.448,5.332,20.078,20.078,0,0,0-.852,2.39c-.182.734-.147,1.519-.315,2.255-.208.916-.417,1.834-.585,2.757-.05.028-.1.054-.154.078a3.628,3.628,0,0,1-.928.3,5.681,5.681,0,0,1-1.732-.057l-3.377-.452a6.8,6.8,0,0,1-3.787-1.316,8.08,8.08,0,0,1-1.321-1.8,8.588,8.588,0,0,0-.111-.977,12.957,12.957,0,0,1,.63-5.981,10.264,10.264,0,0,0,.27-3.735,6.817,6.817,0,0,1-.017-1.224,2.151,2.151,0,0,1,.445-1.143,1.681,1.681,0,0,1,.211-.047h0a1.065,1.065,0,0,1,.144-.019h.069a1.038,1.038,0,0,1,.237.028,4.292,4.292,0,0,1,.473.182h.028a1.812,1.812,0,0,0,.63.09c.312,0,.634-.05.947-.071a1.747,1.747,0,0,1,1.122.2,6.724,6.724,0,0,1,.625.57,2.683,2.683,0,0,0,.788.428,8.376,8.376,0,0,0,6.3-.133,1.232,1.232,0,0,1,.632-.161,1.184,1.184,0,0,1,.454.194c.142.083.282.163.426.237a1.807,1.807,0,0,1,.27.689A4.118,4.118,0,0,1,874.318,535.342Z" transform="translate(-660.142 -417.099)"/><path class="a" d="M869.786,532.311a12.63,12.63,0,0,1-2.7-1.183,1.21,1.21,0,0,0-.454-.194,1.271,1.271,0,0,0-.634.161,8.371,8.371,0,0,1-6.3.133,2.74,2.74,0,0,1-.788-.428,7.068,7.068,0,0,0-.625-.57c-.779-.5-1.856.088-2.726-.237a4.845,4.845,0,0,0-.473-.182c-.689-.173-1.389.514-2.066.305a11.52,11.52,0,0,0-.556,2.111,23.028,23.028,0,0,0-.154,2.49c0,.5-.024,1,0,1.5a.491.491,0,0,1,.374.776,19.4,19.4,0,0,1-1.747,3.694A8.031,8.031,0,0,1,852.4,541.8c.828.876,1.235,2.1,2.13,2.913a6.84,6.84,0,0,0,3.787,1.314l3.377.452a5.771,5.771,0,0,0,1.735.059,3.648,3.648,0,0,0,.925-.3,1.658,1.658,0,0,0,.516-.341,1.891,1.891,0,0,0,.305-.473c.268-.535.511-1.082.736-1.635.078-.2.2-.426.409-.443,1.254-1.131,2.438-2.291,3.692-3.422a8.184,8.184,0,0,0,1.347-1.42c.622-.921.057-2.225,0-3.337a4.217,4.217,0,0,0-.107-.845A2.712,2.712,0,0,0,869.786,532.311Z" transform="translate(-653.549 -415.634)"/><path class="n" d="M835.245,517.275c-.189.379-.644.561-.994.8l-1.2.824a.8.8,0,0,1-.594.2.781.781,0,0,1-.443-.414v-.17a1.587,1.587,0,0,1,.076-.566,1.763,1.763,0,0,1,.53-.682,4.34,4.34,0,0,1,1.555-.947.532.532,0,0,1,.284-.028.373.373,0,0,1,.1.045,1.373,1.373,0,0,1,.213.308C834.871,516.841,835.342,517.081,835.245,517.275Z" transform="translate(-639.101 -405.334)"/><path class="a" d="M839.017,520.263a1.723,1.723,0,0,1-1.025-.587l-.9-.833a.841.841,0,0,1-.156-.175,1.233,1.233,0,0,1-.109-.291,3.338,3.338,0,0,0-.871-1.25.568.568,0,0,0-.258-.185.518.518,0,0,0-.286.028,4.329,4.329,0,0,0-1.555.947,1.766,1.766,0,0,0-.53.682,1.573,1.573,0,0,0-.076.566,4.345,4.345,0,0,0,.412,1.808c.04.088.085.175.132.26a8.2,8.2,0,0,0,1.112,1.446l.563.63c.554.62,1.108,1.24,1.709,1.811a2.259,2.259,0,0,0,.767.535.857.857,0,0,0,.88-.142,1.276,1.276,0,0,0,.251-.45,8.856,8.856,0,0,0,.731-2.951,11.159,11.159,0,0,0-.052-1.224C839.724,520.457,839.419,520.289,839.017,520.263Z" transform="translate(-640.047 -405.827)"/><path class="o" d="M826.58,635.825a54.688,54.688,0,0,1-.507,7.117c-.047.381-.1.762-.125,1.143-.078,1.105.05,2.215-.054,3.313-.054.594-.177,1.183-.282,1.763a31.352,31.352,0,0,0-.4,7.846c.327,4.362-.674,8.726-.22,13.076a10.568,10.568,0,0,1-.14,2.53,10.716,10.716,0,0,1-.367,1.529q-.518,1.777-1.041,3.55a1.231,1.231,0,0,1-.237.492,1.122,1.122,0,0,1-.888.263,10.239,10.239,0,0,1-3.891-1.207,1.356,1.356,0,0,1-.391-.237c-.258-.267-.237-.689-.35-1.041a9.915,9.915,0,0,0-.6-1.046,3.414,3.414,0,0,1-.258-1.077q-.237-1.818-.322-3.649c-.09-1.718,1.046-3.3,1.42-4.97.71-3.285.109-6.807,1.37-9.924.4-.984-.18-2.177-.237-3.238a10.26,10.26,0,0,0-.265-2.031,12.589,12.589,0,0,1-.771-2.651,9.728,9.728,0,0,1,.3-1.976,8.883,8.883,0,0,0-.04-2.918c-.125-.8-.317-1.59-.509-2.367l-.043.088a26.743,26.743,0,0,0-1.484,3.491c-.189.58-.355,1.172-.592,1.735-.194.473-.433.906-.667,1.351a38.827,38.827,0,0,0-2.189,4.864c-.293.819-.551,1.657-.807,2.478l-1.754,5.68c-.473,1.493-.992,2.937-1.456,4.428-.656,2.13-1.311,4.241-2.073,6.324-.71,1.976-1.555,4.023-1.3,6.111a4.5,4.5,0,0,1-2.09.424,12.235,12.235,0,0,1-3.55-.862,2.759,2.759,0,0,1-1.226-.729,2.9,2.9,0,0,1-.237-2.4,5.8,5.8,0,0,1,.284-1.079c.18-.435.473-.821.658-1.252a10.5,10.5,0,0,0,.542-2.658,3.28,3.28,0,0,1,1.24-2.331,33.656,33.656,0,0,1,1.136-4.672c.27-1.167.36-2.367.573-3.55a7.8,7.8,0,0,1,1.271-3.325,5.271,5.271,0,0,1,.644-2.84,3.1,3.1,0,0,0,.282-.6,3.471,3.471,0,0,0,.076-.625,3.694,3.694,0,0,1,1-2.194,4.451,4.451,0,0,1,.388-2.6,9.046,9.046,0,0,0,.5-3.33,2.918,2.918,0,0,1,.045-.947c.066-.237.2-.438.272-.665a3.788,3.788,0,0,0,.107-.85,9.827,9.827,0,0,1,1.183-3.631c.341-.667.052-1.574.123-2.317a8.956,8.956,0,0,1,.871-3.59c.114-.2.237-.4.338-.608a2.635,2.635,0,0,0,.2-.947,3.487,3.487,0,0,0-.1-1.5,7.669,7.669,0,0,1,4.641-1.42,28.925,28.925,0,0,0,4.925-.272c.473-.106.947-.253,1.446-.324a9.356,9.356,0,0,1,3.4.348,4.055,4.055,0,0,0,.473,2.052,22.028,22.028,0,0,1,1.754,8.454Z" transform="translate(-613.268 -488.255)"/><path class="n" d="M884.111,673.29l-2.719,6.116c-.125-.8-.317-1.59-.509-2.367l-.043.088V677l1.482-3.259Z" transform="translate(-676.373 -525.179)"/><path class="n" d="M917,614.34a1.023,1.023,0,0,1-.54.2,2.624,2.624,0,0,1-.885-.121l-2.13-.533a1.041,1.041,0,0,1-.194-.069c.035-.372.106-.8.308-.947.3-.2,1.2.069,1.541.116.587.081,1.183.175,1.756.286A4.691,4.691,0,0,1,917,614.34Z" transform="translate(-701.112 -479.004)"/><path class="a" d="M918.088,557.373c.045.2.109.391.147.589a4.5,4.5,0,0,1-.05,1.465l-.194,1.354-.194,1.361-.75,5.237-.185,1.3-.26,1.811a1.3,1.3,0,0,1-.114.435.906.906,0,0,1-.741.438,2.681,2.681,0,0,1-.885-.121l-2.13-.535a.668.668,0,0,1-.26-.107.514.514,0,0,1-.137-.5c.031-.18.109-.348.135-.528.052-.35-.095-.71-.043-1.058a2.631,2.631,0,0,1,.237-.637c.71-1.569.3-3.4.54-5.105a7.74,7.74,0,0,1,1.642-3.654,10.493,10.493,0,0,1,1.813-1.78,3.648,3.648,0,0,1,1.02-.71C918.107,556.538,918.017,557.075,918.088,557.373Z" transform="translate(-700.4 -436.119)"/><path class="o" d="M861.468,469.8c-.156.5.088,1.044-.024,1.55-.121.559-.646.947-.8,1.508-.237.854.488,1.633,1.018,2.343,1.964,2.637,1.706,6.286,1.034,9.5a49.078,49.078,0,0,1-2.237,7.574,5.8,5.8,0,0,1-1.2,2.113,6.23,6.23,0,0,1,3.337-.324c1.382.383,2.575,1.725,3.976,1.42.842-.187,1.434-.935,2.192-1.349,1.42-.764,3.131-.284,4.714-.038a1.85,1.85,0,0,0,1.03-.052,1.71,1.71,0,0,0,.625-.575,5.836,5.836,0,0,0,1.217-3.148,4.038,4.038,0,0,0-1.162-3.108,6.639,6.639,0,0,1-1-.947,2.939,2.939,0,0,1-.391-1.434c-.187-2.6.447-5.261-.206-7.779a19.2,19.2,0,0,1-.727-2.674c-.13-1.143.18-2.367-.275-3.413a3.347,3.347,0,0,0-2-1.723,10.932,10.932,0,0,0-2.66-.473C866.642,468.659,862.01,468.1,861.468,469.8Z" transform="translate(-659.9 -368.928)"/><g class="p" transform="translate(199.36 100.325)"><path d="M866.625,496.046a48.967,48.967,0,0,1-2.225,7.543c.163-.324.3-.665.431-1a48.8,48.8,0,0,0,2.237-7.573c.675-3.219.932-6.863-1.032-9.5a3.713,3.713,0,0,1-1.06-2.05,2.523,2.523,0,0,0-.4.743c-.237.854.488,1.633,1.018,2.343C867.555,489.18,867.3,492.83,866.625,496.046Z" transform="translate(-863.183 -480.601)"/><path d="M868.409,473.233a2.3,2.3,0,0,0,.417-.8,4.054,4.054,0,0,0-.028-1.056,1.138,1.138,0,0,0-.393.542A4.682,4.682,0,0,0,868.409,473.233Z" transform="translate(-866.197 -471.38)"/><path d="M875.578,566.611a1.7,1.7,0,0,1-.625.573,1.807,1.807,0,0,1-1.03.052c-1.583-.237-3.313-.724-4.714.04-.76.412-1.349,1.16-2.194,1.349-1.4.312-2.592-1.03-3.974-1.42a5.548,5.548,0,0,0-3,.237,4.134,4.134,0,0,1-.783,1.131,6.23,6.23,0,0,1,3.337-.324c1.382.383,2.575,1.725,3.976,1.42.843-.187,1.434-.935,2.192-1.349,1.42-.764,3.131-.284,4.714-.038a1.851,1.851,0,0,0,1.03-.052,1.712,1.712,0,0,0,.625-.575,6.364,6.364,0,0,0,.98-1.874A6.878,6.878,0,0,1,875.578,566.611Z" transform="translate(-859.26 -543.438)"/></g></g></svg>
